<svg width="1280" height="720" viewBox="0 0 1280 720" fill="none" xmlns="http://www.w3.org/2000/svg">
  <rect width="1280" height="720" fill="#006B54"/>
  <rect x="20" y="18" width="240" height="684" rx="12" fill="#004B3A"/>
  <rect x="210" y="8" width="1050" height="704" rx="14" fill="#F3FAF7"/>

  <circle cx="1120" cy="31" r="13" fill="#FFFFFF" stroke="#80B8A9"/>
  <rect x="1141" y="19" width="100" height="24" rx="12" fill="#FFFFFF" stroke="#80B8A9"/>
  <path d="M1155 31h-9m0 0 5-5m-5 5 5 5" stroke="#006B54" stroke-width="2" stroke-linecap="round" stroke-linejoin="round"/>

  <g opacity="0.98">
    <rect x="34" y="144" width="176" height="54" fill="#FFFFFF"/>
    <rect x="34" y="205" width="176" height="54" fill="#007A5E"/>
    <rect x="34" y="265" width="176" height="54" fill="#007A5E"/>
    <rect x="34" y="325" width="176" height="54" fill="#007A5E"/>
  </g>

  <rect x="42" y="49" width="172" height="46" rx="8" fill="#FFFFFF"/>
  <image href="./kuveytturk-logo.svg" x="52" y="56" width="152" height="28" preserveAspectRatio="xMidYMid meet"/>

  <rect x="230" y="101" width="405" height="268" rx="10" fill="#FFFFFF"/>
  <rect x="230" y="101" width="405" height="74" rx="10" fill="#FFFFFF"/>
  <line x1="230" y1="176" x2="635" y2="176" stroke="#BFD8D0"/>
  <line x1="432" y1="101" x2="432" y2="369" stroke="#E1F0EB"/>
  <line x1="230" y1="251" x2="635" y2="251" stroke="#BFD8D0"/>

  <rect x="650" y="101" width="590" height="268" rx="10" fill="#FFFFFF"/>
  <rect x="230" y="396" width="190" height="260" rx="10" fill="#FFFFFF"/>
  <rect x="441" y="396" width="190" height="260" rx="10" fill="#FFFFFF"/>
  <rect x="650" y="396" width="270" height="260" rx="10" fill="#FFFFFF"/>
  <rect x="944" y="396" width="296" height="260" rx="10" fill="#FFFFFF"/>

  <g opacity=".08">
    <path d="M54 566h103c14 0 25 11 25 25v36H79c-14 0-25-11-25-25v-36Z" stroke="#FFFFFF" stroke-width="6"/>
    <path d="M76 541 176 511l16 55" stroke="#FFFFFF" stroke-width="6"/>
    <circle cx="101" cy="597" r="14" stroke="#FFFFFF" stroke-width="6"/>
    <circle cx="145" cy="597" r="14" stroke="#FFFFFF" stroke-width="6"/>
  </g>
</svg>
